<?xml version="1.0" encoding="utf-8"?><svg viewBox="0 0 14 23" xmlns="http://www.w3.org/2000/svg" xmlns:xlink="http://www.w3.org/1999/xlink"><style>:root>svg{display:none}:root>svg:target{display:block}</style><svg fill="none" viewBox="0 0 14 23" id="arrow_left" xmlns="http://www.w3.org/2000/svg"><path d="M10.987.455c.244-.233.572-.364.923-.364.351 0 .673.13.917.364l.78.745a1.207 1.207 0 010 1.758L4.71 11.463l8.909 8.511a1.212 1.212 0 010 1.764l-.78.745a1.329 1.329 0 01-.923.364c-.352 0-.68-.13-.923-.364L.38 12.351a1.211 1.211 0 010-1.764L10.987.455z" fill="#fff"/></svg><svg fill="none" viewBox="0 0 14 23" id="arrow_right" xmlns="http://www.w3.org/2000/svg"><path d="M3.013.455A1.328 1.328 0 002.09.09c-.351 0-.673.13-.917.364l-.78.745a1.207 1.207 0 000 1.758l8.897 8.505L.38 19.974a1.211 1.211 0 000 1.764l.78.745c.244.233.572.364.923.364.352 0 .68-.13.923-.364L13.62 12.351a1.212 1.212 0 000-1.764L3.013.455z" fill="#5956E9"/></svg></svg>